<svg width="28" height="28" viewBox="0 0 28 28" fill="none" xmlns="http://www.w3.org/2000/svg">
<g id="flag">
<g id="vuesax/outline/flag">
<g id="flag_2">
<path id="Vector" d="M6.00836 26.5416C5.53003 26.5416 5.13336 26.1449 5.13336 25.6666V2.33325C5.13336 1.85492 5.53003 1.45825 6.00836 1.45825C6.4867 1.45825 6.88336 1.85492 6.88336 2.33325V25.6666C6.88336 26.1449 6.4867 26.5416 6.00836 26.5416Z" fill="#97979B"/>
<path id="Vector_2" d="M19.075 19.5417H6.00836C5.53003 19.5417 5.13336 19.1451 5.13336 18.6667C5.13336 18.1884 5.53003 17.7917 6.00836 17.7917H19.075C20.3467 17.7917 20.9417 17.4534 21.0584 17.1617C21.175 16.8701 21 16.2167 20.09 15.3184L18.69 13.9184C18.1184 13.4167 17.7684 12.6584 17.7334 11.8184C17.6984 10.9317 18.0484 10.0567 18.69 9.41508L20.09 8.01508C20.9534 7.15175 21.2217 6.45175 21.0934 6.14841C20.965 5.84508 20.3 5.54175 19.075 5.54175H6.00836C5.51836 5.54175 5.13336 5.14508 5.13336 4.66675C5.13336 4.18841 5.53003 3.79175 6.00836 3.79175H19.075C21.63 3.79175 22.4467 4.85341 22.715 5.48341C22.9717 6.11341 23.1467 7.44341 21.3267 9.26341L19.9267 10.6634C19.635 10.9551 19.4717 11.3634 19.4834 11.7717C19.495 12.1217 19.635 12.4367 19.88 12.6584L21.3267 14.0934C23.1117 15.8784 22.9367 17.2084 22.68 17.8501C22.4117 18.4684 21.5834 19.5417 19.075 19.5417Z" fill="#97979B"/>
</g>
</g>
</g>
</svg>
