<svg width="400" height="400" viewBox="0 0 400 400" fill="none" xmlns="http://www.w3.org/2000/svg">
<g clip-path="url(#clip0_231_4689)">
<rect width="400" height="400" rx="64" fill="#6E46FF"/>
<rect x="70" y="55" width="145" height="47" fill="#CEC2FC"/>
<path d="M34 159C34 123.654 62.6538 95 98 95H303C338.346 95 367 123.654 367 159V434H34V159Z" fill="#CEC2FC"/>
<path fill-rule="evenodd" clip-rule="evenodd" d="M132.233 90.5464C136.994 87.3453 144.401 82.8063 155.399 76.8037C159.848 74.6552 167.921 71.5433 177.381 69.4017C186.964 67.2325 197.527 66.1606 206.992 67.7839L207.174 67.8152L207.358 67.8351C211.208 68.2535 221.773 71.4522 229.556 80.6533L249.711 139.091C248.043 138.536 246.342 138.071 244.639 137.678C231.482 134.642 215.455 135.347 204.804 136.829L204.667 136.848L204.531 136.873C182.255 141.026 161.78 152.461 150.456 160.308L127.43 93.9856C128.536 93.12 130.103 91.9781 132.233 90.5464ZM123.31 82.118C123.996 81.6355 124.738 81.1255 125.538 80.5876C130.709 77.111 138.49 72.3576 149.779 66.2001L149.902 66.133L150.028 66.0718C155.28 63.5175 164.288 60.0621 174.732 57.6979C185.09 55.353 197.297 53.9805 208.848 55.9273C215.371 56.6955 229.439 61.2703 239.563 73.9304L240.21 74.7405L240.549 75.7212L244.958 88.5055C251.665 89.0669 263.517 88.8015 274.935 84.5446C289.56 79.0924 303.76 71.0343 308.912 67.7594C310.755 66.5872 312.772 66.534 314.36 66.9894C315.738 67.3844 316.737 68.1272 317.319 68.6263C318.496 69.6346 319.464 70.9619 320.21 72.1078C321.787 74.5283 323.519 77.9552 325.278 81.8578C328.838 89.7544 332.926 100.552 336.589 111.581C340.25 122.606 343.554 134.065 345.491 143.284C346.453 147.864 347.125 152.106 347.285 155.551C347.365 157.26 347.332 159.011 347.049 160.614C346.798 162.035 346.187 164.347 344.292 166.106C336.872 172.995 317.22 188.231 297.749 193.45C290.267 196.211 278.047 199.528 264.897 200.81C252.68 202.001 238.895 201.514 227.313 196.503C224.882 196.048 222.709 194.58 221.072 192.964C218.511 190.436 216.102 186.53 213.985 180.885C210.229 170.867 205.896 156.263 203.919 149.239C182.811 153.846 163.481 165.484 154.56 172.128L161.628 192.486L147.318 197.005L111.909 95.0133C110.96 95.4316 110.011 95.7287 109.092 95.9002C107.364 96.347 105.71 96.6098 104.131 96.7099L139.609 199.44L125.3 203.958L87.9108 95.6928L92.5616 94.0867C91.8236 93.6534 91.1229 93.1754 90.4606 92.659C86.1297 89.2819 83.7557 84.5148 83.011 80.7912L82.9902 80.6872L82.9738 80.5825C81.6652 72.2072 84.1913 65.9382 88.1477 61.8032C91.8342 57.9503 96.7123 56.0315 100.231 56.0013C111.39 55.9056 118.873 60.8457 120.857 67.4821C122.343 71.9743 122.779 76.0239 122.416 79.5891L122.43 79.5842L123.31 82.118ZM166.317 322.731L211.516 453.61L225.694 448.714L180.626 318.212L166.317 322.731ZM188.532 315.715L234.015 446.72L248.185 441.801L202.842 311.196L188.532 315.715ZM267.419 153.628L249.168 100.712C257.331 100.837 268.325 99.8158 279.127 95.7886C291.784 91.0701 304.01 84.5978 311.196 80.4029C312.09 82.0104 313.15 84.1535 314.338 86.7887C317.675 94.192 321.619 104.578 325.201 115.363C328.784 126.153 331.938 137.142 333.747 145.752C334.658 150.086 335.181 153.605 335.298 156.109C335.339 156.997 335.323 157.641 335.286 158.079C327.811 164.793 310.489 177.694 294.405 181.922L294.115 181.998L293.833 182.103C287.247 184.561 275.904 187.68 263.733 188.867C259.281 189.3 254.835 189.464 250.543 189.276C252.52 187.886 254.327 186.374 255.965 184.811C262.217 178.841 266.283 171.85 268.184 166.992L268.421 166.385L268.523 165.741C269.233 161.242 268.787 157.189 267.374 153.644L267.419 153.628ZM108.26 84.5038L110.512 83.722C110.754 83.4133 110.988 83.0691 111.206 82.6862C112.448 80.5129 113.387 76.6951 111.342 70.5584L111.31 70.4636L111.282 70.3676C111.041 69.533 108.898 65.9273 100.317 66.0009C99.7628 66.0057 97.3859 66.6128 95.3731 68.7164C93.6427 70.5249 92.036 73.6117 92.8363 78.9238C93.1934 80.576 94.4207 83.0661 96.6098 84.773C98.6073 86.3306 101.739 87.5124 106.736 86.1801L106.982 86.1144L107.234 86.0741C107.494 86.0324 107.998 85.8512 108.597 85.4739L108.26 84.5038ZM215.98 147.784C218.089 155.151 221.929 167.893 225.221 176.672C226.974 181.345 228.596 183.53 229.501 184.423C229.557 184.479 229.609 184.527 229.656 184.57C237.001 184.058 243 180.599 247.678 176.132C252.265 171.751 255.312 166.64 256.758 163.234C257.218 159.354 256.053 156.87 254.05 154.931C251.629 152.585 247.542 150.663 241.941 149.37C234.008 147.54 224.43 147.282 215.98 147.784ZM335.189 158.71C335.188 158.708 335.195 158.677 335.213 158.622C335.2 158.685 335.191 158.712 335.189 158.71Z" fill="#6E46FF"/>
<mask id="path-5-outside-1_231_4689" maskUnits="userSpaceOnUse" x="54.5007" y="36.5" width="301" height="184" fill="black">
<rect fill="white" x="54.5007" y="36.5" width="301" height="184"/>
<path fill-rule="evenodd" clip-rule="evenodd" d="M118.311 64.8672C115.582 55.7866 105.464 49.3779 91.0048 49.5018C86.1987 49.5429 79.7157 52.124 74.8389 57.2113C69.5563 62.7221 66.2391 71.0393 67.9568 82.0115L67.9814 82.1689L68.0127 82.3251C69.0077 87.2905 72.1576 93.5919 77.9013 98.0621C79.3817 99.2143 81.0031 100.22 82.7584 101.042L118.336 204.062L132.645 199.543L99.3249 103.061C100.368 102.889 101.433 102.665 102.518 102.386C104.073 102.093 105.679 101.54 107.263 100.742L140.683 197.005L154.993 192.486L148.441 173.615C156.867 167.26 175.615 155.831 196.228 151.015C198.349 158.453 202.397 171.949 205.946 181.412C208.108 187.178 210.615 191.299 213.383 194.031C215.092 195.718 217.477 197.384 220.242 197.949C232.133 203.043 246.147 203.498 258.407 202.303C271.661 201.011 283.974 197.677 291.569 194.881C311.37 189.551 331.202 174.146 338.678 167.205C340.934 165.111 341.621 162.402 341.891 160.875C342.201 159.119 342.231 157.246 342.149 155.481C341.983 151.918 341.292 147.586 340.324 142.976C338.371 133.68 335.049 122.162 331.378 111.108C327.705 100.048 323.598 89.1997 320.011 81.2414C318.243 77.3194 316.473 73.8081 314.832 71.2891C314.064 70.1099 313.002 68.6376 311.66 67.4873C310.997 66.9185 309.807 66.0258 308.139 65.5475C306.207 64.9936 303.735 65.0551 301.472 66.4935C296.382 69.729 282.277 77.733 267.777 83.139C257.131 87.1078 246.076 87.5234 239.419 87.0836L235.332 75.2321L234.909 74.0063L234.099 72.9936C223.701 59.9896 209.275 55.2602 202.426 54.4421C190.621 52.4595 178.216 53.8691 167.766 56.2348C157.21 58.6245 148.093 62.118 142.737 64.7228L142.58 64.7994L142.426 64.8832C133.233 69.8976 125.983 74.1804 120.499 77.6387C120.514 73.7369 119.834 69.4682 118.311 64.8672ZM256.952 187.374C254.003 187.661 251.071 187.827 248.196 187.85C248.95 187.21 249.673 186.557 250.366 185.895C256.79 179.761 260.972 172.581 262.945 167.539L263.242 166.78L263.369 165.975C264.117 161.238 263.65 156.934 262.158 153.154L262.202 153.139L244.639 102.219C252.69 102.145 262.929 100.955 273.016 97.1941C285.009 92.7231 296.605 86.6975 303.971 82.4767C304.672 83.8283 305.466 85.4746 306.336 87.4051C309.645 94.7466 313.57 105.081 317.142 115.836C320.716 126.597 323.851 137.526 325.644 146.06C326.549 150.364 327.054 153.792 327.165 156.179C327.188 156.666 327.191 157.063 327.185 157.377C319.555 164.122 302.816 176.416 287.389 180.471L287.026 180.567L286.674 180.698C280.197 183.115 268.98 186.201 256.952 187.374ZM121.205 95.1656C122.302 94.3874 123.633 93.4778 125.213 92.4402C130.534 88.9449 138.493 84.1194 149.45 78.1383C153.802 76.04 161.752 72.9759 171.078 70.8647C180.556 68.7188 190.905 67.6848 200.103 69.2623L200.331 69.3014L200.561 69.3263C204.081 69.7089 214.126 72.7226 221.596 81.4106L240.703 136.809C239.915 136.595 239.127 136.397 238.341 136.216C224.933 133.122 208.701 133.849 197.962 135.343L197.791 135.367L197.621 135.399C175.312 139.558 154.834 150.908 143.311 158.838L121.205 95.1656ZM101.625 84.5038L104.116 83.6389C105.433 81.1586 106.459 76.7306 104.041 69.4908L103.993 69.3484L103.951 69.2042C103.843 68.829 101.741 64.4104 91.1333 64.5012C91.1337 64.5012 91.1327 64.5013 91.1301 64.5016C91.0753 64.5074 90.3319 64.5857 89.1482 65.123C87.9996 65.6444 86.7526 66.4593 85.6672 67.5915C83.7276 69.6149 81.7987 73.1537 82.7492 79.5147C83.161 81.3711 84.5849 84.2563 87.1142 86.2248C89.3575 87.9707 92.9666 89.408 98.9848 87.8061L99.3539 87.7079L99.7304 87.6478L99.7308 87.6477C99.7351 87.6469 99.7803 87.6385 99.8651 87.6129C99.9594 87.5844 100.088 87.539 100.247 87.4698C100.569 87.3299 100.969 87.1125 101.406 86.7984C101.667 86.6113 101.933 86.3962 102.197 86.1517L101.625 84.5038ZM211.31 149.184C213.485 156.677 216.974 168.101 219.991 176.145C221.474 180.101 222.819 182.106 223.604 183.016C230.205 182.373 235.661 179.197 240.006 175.047C244.345 170.904 247.251 166.08 248.657 162.846C248.998 159.55 247.995 157.581 246.372 156.008C244.232 153.936 240.451 152.097 234.968 150.832C227.786 149.175 219.172 148.832 211.31 149.184ZM327.119 158.268C327.095 158.408 327.085 158.389 327.121 158.26L327.119 158.268Z"/>
</mask>
<path fill-rule="evenodd" clip-rule="evenodd" d="M118.311 64.8672C115.582 55.7866 105.464 49.3779 91.0048 49.5018C86.1987 49.5429 79.7157 52.124 74.8389 57.2113C69.5563 62.7221 66.2391 71.0393 67.9568 82.0115L67.9814 82.1689L68.0127 82.3251C69.0077 87.2905 72.1576 93.5919 77.9013 98.0621C79.3817 99.2143 81.0031 100.22 82.7584 101.042L118.336 204.062L132.645 199.543L99.3249 103.061C100.368 102.889 101.433 102.665 102.518 102.386C104.073 102.093 105.679 101.54 107.263 100.742L140.683 197.005L154.993 192.486L148.441 173.615C156.867 167.26 175.615 155.831 196.228 151.015C198.349 158.453 202.397 171.949 205.946 181.412C208.108 187.178 210.615 191.299 213.383 194.031C215.092 195.718 217.477 197.384 220.242 197.949C232.133 203.043 246.147 203.498 258.407 202.303C271.661 201.011 283.974 197.677 291.569 194.881C311.37 189.551 331.202 174.146 338.678 167.205C340.934 165.111 341.621 162.402 341.891 160.875C342.201 159.119 342.231 157.246 342.149 155.481C341.983 151.918 341.292 147.586 340.324 142.976C338.371 133.68 335.049 122.162 331.378 111.108C327.705 100.048 323.598 89.1997 320.011 81.2414C318.243 77.3194 316.473 73.8081 314.832 71.2891C314.064 70.1099 313.002 68.6376 311.66 67.4873C310.997 66.9185 309.807 66.0258 308.139 65.5475C306.207 64.9936 303.735 65.0551 301.472 66.4935C296.382 69.729 282.277 77.733 267.777 83.139C257.131 87.1078 246.076 87.5234 239.419 87.0836L235.332 75.2321L234.909 74.0063L234.099 72.9936C223.701 59.9896 209.275 55.2602 202.426 54.4421C190.621 52.4595 178.216 53.8691 167.766 56.2348C157.21 58.6245 148.093 62.118 142.737 64.7228L142.58 64.7994L142.426 64.8832C133.233 69.8976 125.983 74.1804 120.499 77.6387C120.514 73.7369 119.834 69.4682 118.311 64.8672ZM256.952 187.374C254.003 187.661 251.071 187.827 248.196 187.85C248.95 187.21 249.673 186.557 250.366 185.895C256.79 179.761 260.972 172.581 262.945 167.539L263.242 166.78L263.369 165.975C264.117 161.238 263.65 156.934 262.158 153.154L262.202 153.139L244.639 102.219C252.69 102.145 262.929 100.955 273.016 97.1941C285.009 92.7231 296.605 86.6975 303.971 82.4767C304.672 83.8283 305.466 85.4746 306.336 87.4051C309.645 94.7466 313.57 105.081 317.142 115.836C320.716 126.597 323.851 137.526 325.644 146.06C326.549 150.364 327.054 153.792 327.165 156.179C327.188 156.666 327.191 157.063 327.185 157.377C319.555 164.122 302.816 176.416 287.389 180.471L287.026 180.567L286.674 180.698C280.197 183.115 268.98 186.201 256.952 187.374ZM121.205 95.1656C122.302 94.3874 123.633 93.4778 125.213 92.4402C130.534 88.9449 138.493 84.1194 149.45 78.1383C153.802 76.04 161.752 72.9759 171.078 70.8647C180.556 68.7188 190.905 67.6848 200.103 69.2623L200.331 69.3014L200.561 69.3263C204.081 69.7089 214.126 72.7226 221.596 81.4106L240.703 136.809C239.915 136.595 239.127 136.397 238.341 136.216C224.933 133.122 208.701 133.849 197.962 135.343L197.791 135.367L197.621 135.399C175.312 139.558 154.834 150.908 143.311 158.838L121.205 95.1656ZM101.625 84.5038L104.116 83.6389C105.433 81.1586 106.459 76.7306 104.041 69.4908L103.993 69.3484L103.951 69.2042C103.843 68.829 101.741 64.4104 91.1333 64.5012C91.1337 64.5012 91.1327 64.5013 91.1301 64.5016C91.0753 64.5074 90.3319 64.5857 89.1482 65.123C87.9996 65.6444 86.7526 66.4593 85.6672 67.5915C83.7276 69.6149 81.7987 73.1537 82.7492 79.5147C83.161 81.3711 84.5849 84.2563 87.1142 86.2248C89.3575 87.9707 92.9666 89.408 98.9848 87.8061L99.3539 87.7079L99.7304 87.6478L99.7308 87.6477C99.7351 87.6469 99.7803 87.6385 99.8651 87.6129C99.9594 87.5844 100.088 87.539 100.247 87.4698C100.569 87.3299 100.969 87.1125 101.406 86.7984C101.667 86.6113 101.933 86.3962 102.197 86.1517L101.625 84.5038ZM211.31 149.184C213.485 156.677 216.974 168.101 219.991 176.145C221.474 180.101 222.819 182.106 223.604 183.016C230.205 182.373 235.661 179.197 240.006 175.047C244.345 170.904 247.251 166.08 248.657 162.846C248.998 159.55 247.995 157.581 246.372 156.008C244.232 153.936 240.451 152.097 234.968 150.832C227.786 149.175 219.172 148.832 211.31 149.184ZM327.119 158.268C327.095 158.408 327.085 158.389 327.121 158.26L327.119 158.268Z" fill="#6E46FF"/>
<path d="M91.0048 49.5018L91.1162 62.5013H91.1162L91.0048 49.5018ZM118.311 64.8672L105.861 68.6084L105.913 68.7812L105.969 68.9524L118.311 64.8672ZM74.8389 57.2113L65.4544 48.2152L65.4544 48.2152L74.8389 57.2113ZM67.9568 82.0115L80.8004 80.001L80.8004 80.0009L67.9568 82.0115ZM67.9814 82.1689L55.1378 84.1795L55.1806 84.4523L55.2348 84.7231L67.9814 82.1689ZM68.0127 82.3251L80.7593 79.771L80.7593 79.771L68.0127 82.3251ZM77.9013 98.0621L85.8858 87.8031L85.8858 87.8031L77.9013 98.0621ZM82.7584 101.042L95.0463 96.7986L93.2519 91.6027L88.2742 89.2704L82.7584 101.042ZM118.336 204.062L106.048 208.306L110.18 220.271L122.251 216.459L118.336 204.062ZM132.645 199.543L136.559 211.94L149.291 207.919L144.932 195.3L132.645 199.543ZM99.3249 103.061L97.2133 90.2337L82.0061 92.737L87.037 107.305L99.3249 103.061ZM102.518 102.386L100.104 89.6125L99.69 89.6908L99.2817 89.7958L102.518 102.386ZM107.263 100.742L119.543 96.4779L114.672 82.4475L101.41 89.1333L107.263 100.742ZM140.683 197.005L128.402 201.268L132.547 213.207L144.598 209.401L140.683 197.005ZM154.993 192.486L158.908 204.882L171.66 200.855L167.274 188.222L154.993 192.486ZM148.441 173.615L140.613 163.237L133.056 168.937L136.16 177.879L148.441 173.615ZM196.228 151.015L208.73 147.45L205.333 135.538L193.271 138.356L196.228 151.015ZM205.946 181.412L193.773 185.976L193.773 185.976L205.946 181.412ZM213.383 194.031L222.515 184.779L222.515 184.779L213.383 194.031ZM220.242 197.949L225.361 185.999L224.142 185.477L222.842 185.211L220.242 197.949ZM258.407 202.303L257.146 189.364L258.407 202.303ZM291.569 194.881L288.19 182.328L287.625 182.48L287.077 182.682L291.569 194.881ZM338.678 167.205L347.523 176.732V176.732L338.678 167.205ZM341.891 160.875L329.089 158.616V158.616L341.891 160.875ZM342.149 155.481L355.134 154.876V154.876L342.149 155.481ZM340.324 142.976L353.046 140.303L353.046 140.303L340.324 142.976ZM331.378 111.108L343.715 107.011V107.011L331.378 111.108ZM320.011 81.2414L308.159 86.5832V86.5833L320.011 81.2414ZM314.832 71.2891L303.939 78.3843L303.939 78.3844L314.832 71.2891ZM311.66 67.4873L303.201 77.358L303.201 77.3581L311.66 67.4873ZM308.139 65.5475L304.555 78.0438L304.555 78.0438L308.139 65.5475ZM301.472 66.4935L308.446 77.4644V77.4644L301.472 66.4935ZM267.777 83.139L272.318 95.32L267.777 83.139ZM239.419 87.0836L227.13 91.3223L229.945 99.4858L238.562 100.055L239.419 87.0836ZM235.332 75.2321L247.621 70.9933L247.621 70.9932L235.332 75.2321ZM234.909 74.0063L247.198 69.7674L246.466 67.6428L245.062 65.8875L234.909 74.0063ZM234.099 72.9936L223.946 81.1123L223.946 81.1124L234.099 72.9936ZM202.426 54.4421L200.273 67.2625L200.578 67.3137L200.884 67.3503L202.426 54.4421ZM167.766 56.2348L164.895 43.5557L167.766 56.2348ZM142.737 64.7228L137.052 53.0321L137.051 53.0321L142.737 64.7228ZM142.58 64.7994L136.894 53.1086L136.621 53.2414L136.355 53.3867L142.58 64.7994ZM142.426 64.8832L148.651 76.2959L148.651 76.2959L142.426 64.8832ZM120.499 77.6387L107.499 77.587L107.405 101.265L127.433 88.6349L120.499 77.6387ZM248.196 187.85L239.782 177.94L212.46 201.14L248.301 200.85L248.196 187.85ZM256.952 187.374L255.691 174.435H255.691L256.952 187.374ZM250.366 185.895L259.344 195.297L259.344 195.297L250.366 185.895ZM262.945 167.539L275.052 172.276L275.052 172.276L262.945 167.539ZM263.242 166.78L275.349 171.517L275.863 170.202L276.083 168.808L263.242 166.78ZM263.369 165.975L276.21 168.003L276.21 168.003L263.369 165.975ZM262.158 153.154L257.918 140.865L245.078 145.295L250.066 157.929L262.158 153.154ZM262.202 153.139L266.442 165.428L278.73 161.189L274.492 148.9L262.202 153.139ZM244.639 102.219L244.521 89.219L226.461 89.383L232.35 106.457L244.639 102.219ZM273.016 97.1941L268.475 85.013V85.013L273.016 97.1941ZM303.971 82.4767L315.51 76.4891L309.268 64.459L297.508 71.1971L303.971 82.4767ZM306.336 87.4051L318.188 82.0632V82.0632L306.336 87.4051ZM317.142 115.836L329.48 111.739V111.739L317.142 115.836ZM325.644 146.06L338.366 143.387V143.387L325.644 146.06ZM327.165 156.179L340.151 155.574V155.574L327.165 156.179ZM327.185 157.377L335.795 167.117L340.066 163.341L340.182 157.642L327.185 157.377ZM287.389 180.471L290.694 193.044L290.694 193.044L287.389 180.471ZM287.026 180.567L283.721 167.994L283.091 168.159L282.48 168.387L287.026 180.567ZM286.674 180.698L291.219 192.877L291.219 192.877L286.674 180.698ZM125.213 92.4402L118.076 81.5743L118.076 81.5743L125.213 92.4402ZM121.205 95.1656L113.683 84.563L105.723 90.21L108.924 99.4293L121.205 95.1656ZM149.45 78.1383L143.804 66.4282L143.509 66.5705L143.221 66.7276L149.45 78.1383ZM171.078 70.8647L168.207 58.1855L171.078 70.8647ZM200.103 69.2623L197.906 82.0752L197.906 82.0752L200.103 69.2623ZM200.331 69.3014L198.133 82.1143L198.528 82.182L198.926 82.2253L200.331 69.3014ZM200.561 69.3263L199.156 82.2502L199.156 82.2502L200.561 69.3263ZM221.596 81.4106L233.885 77.1719L233.074 74.8213L231.453 72.9359L221.596 81.4106ZM240.703 136.809L237.285 149.352L261.01 155.818L252.992 132.57L240.703 136.809ZM238.341 136.216L235.418 148.883L235.418 148.883L238.341 136.216ZM197.962 135.343L196.17 122.467L196.17 122.467L197.962 135.343ZM197.791 135.367L195.999 122.491L195.702 122.532L195.408 122.587L197.791 135.367ZM197.621 135.399L195.238 122.619H195.238L197.621 135.399ZM143.311 158.838L131.03 163.102L136.625 179.219L150.68 169.547L143.311 158.838ZM104.116 83.6389L108.38 95.9198L113.204 94.2452L115.598 89.7355L104.116 83.6389ZM101.625 84.5038L97.3614 72.2229L85.0805 76.4866L89.3442 88.7675L101.625 84.5038ZM104.041 69.4908L116.371 65.3729L116.371 65.3726L104.041 69.4908ZM103.993 69.3484L91.5077 72.9693L91.5803 73.2195L91.6628 73.4666L103.993 69.3484ZM103.951 69.2042L116.437 65.5833L116.437 65.583L103.951 69.2042ZM91.1333 64.5012L91.0141 51.5018L91.2447 77.5007L91.1333 64.5012ZM91.1301 64.5016L89.768 51.5732L89.7677 51.5732L91.1301 64.5016ZM89.1482 65.123L94.5215 76.9606L94.5215 76.9606L89.1482 65.123ZM85.6672 67.5915L76.2827 58.5954L76.2827 58.5954L85.6672 67.5915ZM82.7492 79.5147L69.892 81.436L69.9592 81.8859L70.0577 82.33L82.7492 79.5147ZM87.1142 86.2248L95.0987 75.9658L95.0987 75.9658L87.1142 86.2248ZM98.9848 87.8061L95.6411 75.2435L95.6411 75.2435L98.9848 87.8061ZM99.3539 87.7079L97.3037 74.8706L96.65 74.975L96.0103 75.1453L99.3539 87.7079ZM99.7304 87.6478L101.781 100.485L102.031 100.445L102.28 100.395L99.7304 87.6478ZM99.7308 87.6477L97.3644 74.8649L97.2727 74.8819L97.1812 74.9002L99.7308 87.6477ZM99.8651 87.6129L96.106 75.1683L96.1054 75.1684L99.8651 87.6129ZM100.247 87.4698L95.0611 75.5491L95.0611 75.5491L100.247 87.4698ZM101.406 86.7984L93.8286 76.2354L93.8286 76.2354L101.406 86.7984ZM102.197 86.1517L111.023 95.6971L117.268 89.923L114.478 81.888L102.197 86.1517ZM219.991 176.145L207.818 180.71L207.818 180.71L219.991 176.145ZM211.31 149.184L210.728 136.197L194.218 136.936L198.825 152.808L211.31 149.184ZM223.604 183.016L213.763 191.51L218.163 196.608L224.865 195.955L223.604 183.016ZM240.006 175.047L248.984 184.449L248.984 184.449L240.006 175.047ZM248.657 162.846L260.579 168.03L261.38 166.186L261.587 164.186L248.657 162.846ZM246.372 156.008L237.327 165.346L237.327 165.346L246.372 156.008ZM234.968 150.832L232.046 163.499L232.046 163.499L234.968 150.832ZM327.119 158.268L339.921 160.528L339.924 160.511L339.927 160.494L327.119 158.268ZM327.121 158.26L339.929 160.485L314.6 154.761L327.121 158.26ZM91.1162 62.5013C102.305 62.4055 105.421 67.1429 105.861 68.6084L130.761 61.126C125.744 44.4302 108.623 36.3504 90.8935 36.5022L91.1162 62.5013ZM84.2235 66.2075C85.449 64.929 86.9043 63.9458 88.326 63.2998C89.8163 62.6227 90.8464 62.5036 91.1162 62.5013L90.8935 36.5022C82.235 36.5764 72.5044 40.8608 65.4544 48.2152L84.2235 66.2075ZM80.8004 80.0009C79.6928 72.9261 81.8243 68.7103 84.2235 66.2075L65.4544 48.2152C57.2883 56.7339 52.7854 69.1526 55.1132 84.0221L80.8004 80.0009ZM80.825 80.1584L80.8004 80.001L55.1132 84.0221L55.1378 84.1795L80.825 80.1584ZM80.7593 79.771L80.728 79.6148L55.2348 84.7231L55.2661 84.8793L80.7593 79.771ZM85.8858 87.8031C82.8769 85.4613 81.2141 82.0403 80.7593 79.771L55.2661 84.8793C56.8013 92.5407 61.4383 101.722 69.9168 108.321L85.8858 87.8031ZM88.2742 89.2704C87.4229 88.8715 86.6264 88.3795 85.8858 87.8031L69.9168 108.321C72.137 110.049 74.5833 111.568 77.2426 112.814L88.2742 89.2704ZM130.624 199.819L95.0463 96.7986L70.4705 105.286L106.048 208.306L130.624 199.819ZM122.251 216.459L136.559 211.94L128.73 187.147L114.421 191.666L122.251 216.459ZM87.037 107.305L120.357 203.787L144.932 195.3L111.613 98.8175L87.037 107.305ZM99.2817 89.7958C98.5572 89.982 97.8679 90.126 97.2133 90.2337L101.436 115.888C102.868 115.653 104.308 115.349 105.754 114.977L99.2817 89.7958ZM101.41 89.1333C100.812 89.4348 100.358 89.5646 100.104 89.6125L104.932 115.16C107.787 114.621 110.546 113.645 113.115 112.35L101.41 89.1333ZM152.964 192.741L119.543 96.4779L94.9816 105.005L128.402 201.268L152.964 192.741ZM144.598 209.401L158.908 204.882L151.078 180.089L136.768 184.608L144.598 209.401ZM136.16 177.879L142.712 196.75L167.274 188.222L160.722 169.352L136.16 177.879ZM193.271 138.356C170.34 143.713 149.951 156.193 140.613 163.237L156.269 183.994C163.783 178.327 180.89 167.949 199.186 163.675L193.271 138.356ZM218.118 176.847C214.765 167.905 210.835 154.833 208.73 147.45L183.727 154.58C185.863 162.073 190.03 175.993 193.773 185.976L218.118 176.847ZM222.515 184.779C221.541 183.818 219.886 181.561 218.118 176.847L193.773 185.976C196.33 192.794 199.689 198.781 204.25 203.283L222.515 184.779ZM222.842 185.211C223.02 185.247 223.131 185.289 223.173 185.306C223.214 185.323 223.201 185.321 223.137 185.283C223.073 185.244 222.98 185.182 222.864 185.09C222.749 184.999 222.63 184.893 222.515 184.779L204.25 203.283C207.008 206.005 211.551 209.442 217.642 210.686L222.842 185.211ZM257.146 189.364C245.827 190.467 234.348 189.849 225.361 185.999L215.122 209.898C229.918 216.237 246.466 216.528 259.668 215.242L257.146 189.364ZM287.077 182.682C280.401 185.14 269.173 188.192 257.146 189.364L259.668 215.242C274.149 213.83 287.548 210.215 296.061 207.08L287.077 182.682ZM329.832 157.678C322.924 164.092 304.962 177.813 288.19 182.328L294.948 207.434C317.778 201.289 339.48 184.2 347.523 176.732L329.832 157.678ZM329.089 158.616C329.052 158.823 329.037 158.808 329.093 158.676C329.161 158.519 329.371 158.107 329.832 157.678L347.523 176.732C352.908 171.733 354.26 165.589 354.693 163.134L329.089 158.616ZM329.163 156.086C329.222 157.366 329.166 158.179 329.089 158.616L354.693 163.134C355.236 160.058 355.239 157.125 355.134 154.876L329.163 156.086ZM327.602 145.649C328.514 149.992 329.044 153.541 329.163 156.086L355.134 154.876C354.921 150.295 354.071 145.181 353.046 140.303L327.602 145.649ZM319.04 115.206C322.627 126.005 325.787 137.013 327.602 145.649L353.046 140.303C350.954 130.347 347.471 118.32 343.715 107.011L319.04 115.206ZM308.159 86.5833C311.505 94.0071 315.455 104.41 319.04 115.206L343.715 107.011C339.954 95.6868 335.691 84.3923 331.863 75.8995L308.159 86.5833ZM303.939 78.3844C305.024 80.0501 306.468 82.8317 308.159 86.5832L331.863 75.8995C330.018 71.807 327.922 67.5661 325.725 64.1938L303.939 78.3844ZM303.201 77.3581C303.101 77.2725 303.148 77.2964 303.323 77.5146C303.491 77.7237 303.691 78.0041 303.939 78.3843L325.725 64.1938C324.76 62.7121 322.891 59.9915 320.12 57.6166L303.201 77.3581ZM304.555 78.0438C303.708 77.8008 303.247 77.3978 303.201 77.358L320.12 57.6167C318.746 56.4392 315.906 54.2509 311.722 53.0511L304.555 78.0438ZM308.446 77.4644C307.05 78.3521 305.561 78.3321 304.555 78.0438L311.722 53.0511C306.854 51.6551 300.42 51.7581 294.498 55.5225L308.446 77.4644ZM272.318 95.32C287.891 89.5142 302.819 81.0415 308.446 77.4644L294.498 55.5225C289.945 58.4164 276.664 65.9517 263.235 70.958L272.318 95.32ZM238.562 100.055C246.379 100.572 259.411 100.132 272.318 95.32L263.235 70.958C254.85 74.084 245.772 74.475 240.277 74.1119L238.562 100.055ZM223.042 79.4708L227.13 91.3223L251.709 82.8448L247.621 70.9933L223.042 79.4708ZM222.619 78.2451L223.042 79.4709L247.621 70.9932L247.198 69.7674L222.619 78.2451ZM223.946 81.1124L224.756 82.1251L245.062 65.8875L244.252 64.8748L223.946 81.1124ZM200.884 67.3503C205.124 67.8567 216.122 71.3285 223.946 81.1123L244.252 64.8748C231.279 48.6508 213.426 42.6636 203.968 41.5338L200.884 67.3503ZM170.636 68.914C180.192 66.7507 190.759 65.6648 200.273 67.2625L204.579 41.6216C190.483 39.2543 176.24 40.9875 164.895 43.5557L170.636 68.914ZM148.423 76.4136C152.879 74.2465 161.051 71.084 170.636 68.914L164.895 43.5557C153.369 46.165 143.308 49.9896 137.052 53.0321L148.423 76.4136ZM148.265 76.4901L148.423 76.4136L137.051 53.0321L136.894 53.1086L148.265 76.4901ZM148.651 76.2959L148.805 76.212L136.355 53.3867L136.201 53.4706L148.651 76.2959ZM127.433 88.6349C132.651 85.3446 139.66 81.2 148.651 76.2959L136.201 53.4705C126.805 58.5953 119.315 63.0163 113.565 66.6425L127.433 88.6349ZM105.969 68.9524C107.101 72.3718 107.508 75.243 107.499 77.587L133.499 77.6904C133.52 72.2307 132.566 66.5645 130.652 60.782L105.969 68.9524ZM248.301 200.85C251.6 200.823 254.92 200.633 258.213 200.312L255.691 174.435C253.086 174.689 250.541 174.831 248.091 174.85L248.301 200.85ZM241.388 176.493C240.871 176.987 240.336 177.47 239.782 177.94L256.61 197.76C257.563 196.951 258.474 196.127 259.344 195.297L241.388 176.493ZM250.839 162.801C249.492 166.246 246.318 171.786 241.388 176.493L259.344 195.297C267.261 187.736 272.453 178.916 275.052 172.276L250.839 162.801ZM251.136 162.043L250.839 162.801L275.052 172.276L275.349 171.517L251.136 162.043ZM250.529 163.948L250.401 164.752L276.083 168.808L276.21 168.003L250.529 163.948ZM250.066 157.929C250.628 159.352 250.949 161.286 250.528 163.948L276.21 168.003C277.286 161.19 276.672 154.516 274.25 148.38L250.066 157.929ZM257.963 140.85L257.918 140.865L266.398 165.444L266.442 165.428L257.963 140.85ZM232.35 106.457L249.913 157.378L274.492 148.9L256.929 97.9798L232.35 106.457ZM268.475 85.013C260.163 88.1117 251.5 89.1557 244.521 89.219L244.757 115.218C253.88 115.135 265.695 113.798 277.558 109.375L268.475 85.013ZM297.508 71.1971C290.509 75.2072 279.581 80.8725 268.475 85.013L277.558 109.375C290.436 104.574 302.7 98.1878 310.434 93.7563L297.508 71.1971ZM318.188 82.0632C317.244 79.9693 316.346 78.1003 315.51 76.4891L292.432 88.4642C292.999 89.5563 293.688 90.9798 294.484 92.747L318.188 82.0632ZM329.48 111.739C325.82 100.719 321.737 89.9393 318.188 82.0632L294.484 92.7469C297.552 99.5539 301.321 109.442 304.805 119.933L329.48 111.739ZM338.366 143.387C336.435 134.193 333.138 122.754 329.48 111.739L304.805 119.933C308.294 130.44 311.268 140.86 312.922 148.733L338.366 143.387ZM340.151 155.574C339.992 152.167 339.326 147.955 338.366 143.387L312.922 148.733C313.771 152.773 314.115 155.417 314.179 156.783L340.151 155.574ZM340.182 157.642C340.195 157.01 340.186 156.322 340.151 155.574L314.179 156.783C314.189 157.011 314.187 157.116 314.187 157.113L340.182 157.642ZM290.694 193.044C309.1 188.205 327.693 174.28 335.795 167.117L318.574 147.638C311.418 153.965 296.533 164.626 284.084 167.898L290.694 193.044ZM290.331 193.139L290.694 193.044L284.084 167.898L283.721 167.994L290.331 193.139ZM291.219 192.877L291.571 192.746L282.48 168.387L282.128 168.518L291.219 192.877ZM258.213 200.312C271.482 199.019 283.801 195.646 291.219 192.877L282.129 168.518C276.592 170.584 266.479 173.383 255.691 174.435L258.213 200.312ZM118.076 81.5743C116.386 82.6844 114.924 83.682 113.683 84.563L128.727 105.768C129.679 105.093 130.88 104.271 132.349 103.306L118.076 81.5743ZM143.221 66.7276C132.024 72.84 123.752 77.8461 118.076 81.5743L132.349 103.306C137.317 100.044 144.962 95.3988 155.679 89.5489L143.221 66.7276ZM168.207 58.1855C157.917 60.515 149.037 63.9053 143.804 66.4282L155.096 89.8484C158.567 88.1746 165.586 85.4368 173.948 83.5438L168.207 58.1855ZM202.301 56.4494C190.788 54.4748 178.582 55.8369 168.207 58.1855L173.948 83.5438C182.531 81.6008 191.022 80.8947 197.906 82.0752L202.301 56.4494ZM202.528 56.4884L202.3 56.4494L197.906 82.0752L198.133 82.1143L202.528 56.4884ZM201.965 56.4024L201.735 56.3775L198.926 82.2253L199.156 82.2502L201.965 56.4024ZM231.453 72.9359C221.457 61.3082 208.143 57.0738 201.965 56.4024L199.156 82.2502C199.033 82.2369 199.507 82.29 200.502 82.5925C201.43 82.8745 202.612 83.3132 203.917 83.9473C206.553 85.2276 209.389 87.154 211.738 89.8854L231.453 72.9359ZM252.992 132.57L233.885 77.1719L209.306 85.6494L228.413 141.048L252.992 132.57ZM235.418 148.883C236.049 149.029 236.672 149.185 237.285 149.352L244.121 124.267C243.159 124.004 242.205 123.766 241.264 123.549L235.418 148.883ZM199.753 148.219C209.731 146.831 224.19 146.292 235.418 148.883L241.264 123.549C225.675 119.952 207.671 120.867 196.17 122.467L199.753 148.219ZM199.582 148.243L199.753 148.219L196.17 122.467L195.999 122.491L199.582 148.243ZM200.003 148.178L200.173 148.147L195.408 122.587L195.238 122.619L200.003 148.178ZM150.68 169.547C161.376 162.187 180.141 151.882 200.003 148.178L195.238 122.619C170.483 127.234 148.292 139.629 135.941 148.128L150.68 169.547ZM108.924 99.4293L131.03 163.102L155.592 154.574L133.486 90.9019L108.924 99.4293ZM99.8528 71.358L97.3614 72.2229L105.889 96.7847L108.38 95.9198L99.8528 71.358ZM91.7103 73.6088C92.4919 75.9493 92.5191 77.2373 92.4961 77.686C92.4757 78.0868 92.4119 77.9618 92.6347 77.5422L115.598 89.7355C118.856 83.5999 119.72 75.3996 116.371 65.3729L91.7103 73.6088ZM91.6628 73.4666L91.7104 73.609L116.371 65.3726L116.324 65.2302L91.6628 73.4666ZM91.4659 72.8251L91.5077 72.9693L116.479 65.7275L116.437 65.5833L91.4659 72.8251ZM91.2447 77.5007C94.7601 77.4706 95.3945 78.1947 94.6985 77.7692C94.3676 77.5669 93.8531 77.171 93.3024 76.4927C93.0359 76.1646 92.7594 75.7683 92.4904 75.293C92.3571 75.0575 92.2108 74.7761 92.062 74.4473C91.9548 74.2104 91.6985 73.6272 91.466 72.8254L116.437 65.583C114.187 57.8239 105.356 51.3789 91.022 51.5017L91.2447 77.5007ZM92.4923 77.43C92.4924 77.43 92.493 77.43 92.4936 77.4299C92.4943 77.4298 92.4955 77.4297 92.4969 77.4295C92.4994 77.4293 92.5048 77.4287 92.5117 77.428C92.5168 77.4274 92.5604 77.4228 92.6152 77.4165C92.6416 77.4135 92.7035 77.4063 92.7823 77.3962C92.805 77.3933 93.0566 77.3621 93.3704 77.3073C93.4025 77.3017 94.0364 77.1982 94.8038 76.9723C95.036 76.904 95.4478 76.7762 95.9477 76.5769C96.311 76.4321 97.4105 75.9851 98.643 75.1128C99.0629 74.8157 103.897 71.572 104.126 64.949C104.39 57.27 98.5084 53.7428 97.5836 53.2143C95.9876 52.3022 94.5792 51.9596 94.1826 51.8639C93.5884 51.7205 93.1062 51.6491 92.8473 51.6147C92.3223 51.5449 91.908 51.5233 91.7462 51.5157C91.3812 51.4984 91.0958 51.501 91.0141 51.5018L91.2526 77.5007C91.1709 77.5014 90.8855 77.504 90.5205 77.4868C90.3588 77.4791 89.9445 77.4576 89.4195 77.3877C89.1606 77.3533 88.6784 77.2819 88.0842 77.1385C87.6876 77.0429 86.2792 76.7002 84.6832 75.7882C83.7584 75.2597 77.8765 71.7324 78.1411 64.0534C78.3694 57.4304 83.2039 54.1868 83.6238 53.8896C84.8563 53.0174 85.9558 52.5704 86.3191 52.4255C86.819 52.2262 87.2308 52.0985 87.463 52.0301C88.2304 51.8043 88.8642 51.7008 88.8963 51.6952C89.21 51.6404 89.4615 51.6092 89.484 51.6063C89.5626 51.5962 89.6243 51.5891 89.6504 51.5861C89.7265 51.5774 89.8055 51.5692 89.768 51.5732L92.4923 77.43ZM94.5215 76.9606C94.3935 77.0186 94.1566 77.1118 93.7955 77.2045C93.6161 77.2506 93.4098 77.2956 93.1749 77.3361C93.0574 77.3564 92.9351 77.3752 92.8079 77.3923C92.7443 77.4008 92.682 77.4086 92.6213 77.4157C92.5911 77.4192 92.5633 77.4223 92.5382 77.4251C92.5259 77.4264 92.5151 77.4276 92.5064 77.4285C92.4983 77.4294 92.4917 77.4301 92.4926 77.43L89.7677 51.5732C88.5852 51.6978 86.4457 52.0731 83.775 53.2854L94.5215 76.9606ZM95.0518 76.5876C94.9544 76.6892 94.8684 76.7579 94.7993 76.8059C94.7325 76.8523 94.6463 76.9039 94.5215 76.9606L83.775 53.2854C81.2741 54.4206 78.6233 56.1537 76.2827 58.5954L95.0518 76.5876ZM95.6065 77.5934C95.4899 76.8135 95.4906 76.3149 95.5068 76.0518C95.5226 75.7959 95.5545 75.7344 95.5292 75.8151C95.5032 75.8981 95.4452 76.0404 95.3425 76.208C95.2427 76.3708 95.1364 76.4993 95.0518 76.5876L76.2827 58.5954C71.5021 63.5824 68.3587 71.175 69.892 81.436L95.6065 77.5934ZM95.0987 75.9658C95.2118 76.0538 95.2672 76.1161 95.2797 76.1307C95.2915 76.1445 95.2838 76.1371 95.2688 76.1122C95.2528 76.0857 95.2554 76.084 95.2748 76.1311C95.2881 76.1636 95.3624 76.3465 95.4407 76.6994L70.0577 82.33C71.0384 86.7508 73.9165 92.4264 79.1297 96.4838L95.0987 75.9658ZM95.6411 75.2435C94.915 75.4368 94.4579 75.4861 94.2335 75.4978C94.0171 75.509 93.9956 75.4866 94.1221 75.5112C94.2521 75.5366 94.4386 75.5922 94.6468 75.6911C94.8493 75.7873 95.003 75.8913 95.0987 75.9658L79.1297 96.4838C84.7028 100.821 92.5332 102.976 102.328 100.369L95.6411 75.2435ZM96.0103 75.1453L95.6411 75.2435L102.328 100.369L102.698 100.271L96.0103 75.1453ZM97.6803 74.8105L97.3037 74.8706L101.404 100.545L101.781 100.485L97.6803 74.8105ZM97.1812 74.9002L97.1809 74.9002L102.28 100.395L102.28 100.395L97.1812 74.9002ZM96.1054 75.1684C96.2995 75.1098 96.5067 75.0532 96.7268 75.0003C96.9614 74.9438 97.1771 74.8996 97.3644 74.8649L102.097 100.431C102.535 100.349 103.048 100.232 103.625 100.057L96.1054 75.1684ZM95.0611 75.5491C95.3413 75.4272 95.6885 75.2944 96.106 75.1683L103.624 100.058C104.23 99.8745 104.835 99.6508 105.434 99.3905L95.0611 75.5491ZM93.8286 76.2354C94.111 76.0328 94.5101 75.7888 95.0611 75.5491L105.433 99.3905C106.628 98.871 107.826 98.1923 108.984 97.3613L93.8286 76.2354ZM93.372 76.6063C93.5026 76.4856 93.6536 76.361 93.8286 76.2354L108.984 97.3614C109.681 96.8617 110.363 96.3068 111.023 95.6971L93.372 76.6063ZM89.3442 88.7675L89.9163 90.4155L114.478 81.888L113.906 80.2401L89.3442 88.7675ZM232.163 171.58C229.331 164.027 225.955 153.003 223.794 145.56L198.825 152.808C201.015 160.351 204.618 172.174 207.818 180.71L232.163 171.58ZM233.446 174.523C233.94 175.095 233.279 174.558 232.163 171.58L207.818 180.71C209.669 185.644 211.698 189.117 213.763 191.51L233.446 174.523ZM231.028 165.645C228.199 168.347 225.332 169.786 222.344 170.077L224.865 195.955C235.078 194.96 243.122 190.047 248.984 184.449L231.028 165.645ZM236.735 157.663C235.925 159.525 233.955 162.851 231.028 165.645L248.984 184.449C254.736 178.957 258.577 172.634 260.579 168.03L236.735 157.663ZM237.327 165.346C237.115 165.141 236.494 164.458 236.072 163.328C235.655 162.211 235.731 161.457 235.726 161.507L261.587 164.186C261.924 160.939 261.669 157.553 260.43 154.234C259.186 150.902 257.252 148.449 255.416 146.671L237.327 165.346ZM232.046 163.499C234.11 163.975 235.547 164.492 236.471 164.919C237.432 165.363 237.577 165.589 237.327 165.346L255.416 146.671C250.832 142.23 244.4 139.667 237.891 138.165L232.046 163.499ZM211.891 162.171C219.145 161.846 226.459 162.21 232.046 163.499L237.891 138.165C229.114 136.14 219.199 135.818 210.728 136.197L211.891 162.171ZM314.317 156.008C314.34 155.877 314.388 155.619 314.469 155.285C314.494 155.182 314.595 154.762 314.771 154.236C314.78 154.21 315.11 153.152 315.785 151.96C315.987 151.603 316.401 150.907 317.047 150.119C317.498 149.57 319.083 147.676 321.907 146.446C323.505 145.75 325.765 145.157 328.442 145.435C331.198 145.721 333.511 146.842 335.238 148.23C338.234 150.636 339.22 153.6 339.474 154.387C340.102 156.343 340.093 157.992 340.096 158.171C340.104 158.709 340.076 159.134 340.06 159.345C340.026 159.789 339.976 160.135 339.954 160.285C339.903 160.626 339.849 160.891 339.82 161.026C339.756 161.331 339.691 161.58 339.641 161.759L314.6 154.761C314.532 155.005 314.455 155.304 314.383 155.645C314.351 155.797 314.294 156.077 314.242 156.428C314.218 156.582 314.168 156.932 314.134 157.379C314.118 157.592 314.09 158.018 314.098 158.557C314.101 158.737 314.092 160.386 314.721 162.342C314.974 163.131 315.96 166.094 318.957 168.501C320.684 169.888 322.997 171.009 325.753 171.295C328.43 171.574 330.689 170.98 332.288 170.284C335.112 169.054 336.697 167.161 337.148 166.611C337.794 165.823 338.209 165.126 338.411 164.769C339.086 163.576 339.417 162.516 339.427 162.486C339.606 161.953 339.71 161.522 339.739 161.403C339.827 161.038 339.886 160.729 339.921 160.528L314.317 156.008ZM314.312 156.035L314.311 156.043L339.927 160.494L339.929 160.485L314.312 156.035Z" fill="#CEC2FC" mask="url(#path-5-outside-1_231_4689)"/>
<path fill-rule="evenodd" clip-rule="evenodd" d="M160.118 199.636C160.741 199.462 161.242 199.324 161.604 199.224C161.799 199.261 162.26 199.386 162.971 199.849C164.07 200.566 165.139 201.717 165.81 202.999C166.48 204.277 166.533 205.23 166.421 205.774C166.346 206.135 166.074 207.039 164.304 208.152C158.703 211.675 150.555 214.59 143.062 216.964C141.505 217.457 139.88 217.956 138.343 218.428L138.337 218.43C136.485 218.999 134.76 219.529 133.433 219.962C132.163 220.377 130.868 220.826 129.797 221.29C129.277 221.515 128.573 221.843 127.877 222.286L127.847 222.305C127.436 222.564 125.628 223.707 124.629 225.972C123.718 228.036 122.832 231.706 124.388 235.528C124.767 236.46 125.247 237.298 125.81 238.047C124.99 239.6 124.391 241.229 124.035 242.929C122.969 248.017 124.309 252.649 126.515 256.227C128.676 259.734 131.788 262.471 134.975 264.26C135.635 264.629 136.344 264.984 137.093 265.306C134.653 267.932 132.953 270.899 132.217 274.203C131.05 279.442 132.611 284.151 134.989 287.67C137.317 291.116 140.608 293.75 143.892 295.453C145.25 296.157 146.782 296.791 148.411 297.239C146.527 299.689 145.239 302.364 144.649 305.239C143.629 310.2 144.899 314.725 147.017 318.241C149.092 321.686 152.092 324.385 155.185 326.155C158.106 327.826 162.109 329.221 166.197 328.544C168.586 328.149 172.898 326.857 177.37 325.431C182.085 323.927 187.676 322.043 193.01 320.208C198.351 318.371 203.469 316.571 207.25 315.232C209.141 314.562 210.699 314.006 211.786 313.618C212.329 313.424 212.754 313.271 213.044 313.167L213.376 313.048L213.461 313.017L213.483 313.01L213.489 313.007L213.491 313.007C213.491 313.007 213.491 313.007 210.952 305.95L213.491 313.007L213.967 312.835L214.416 312.602C223.685 307.774 225.828 297.945 224.294 290.564C223.316 285.858 220.283 280.252 215.136 277.452C219.563 272.417 220.591 265.667 219.233 259.971C217.608 253.152 211.95 245.938 203.122 245.27C207.212 240.137 208.058 233.457 206.895 228.002C205.362 220.814 199.218 212.022 188.59 212.969C185.987 213.202 182.379 213.985 178.493 214.986C179.766 213.105 180.651 211.031 181.111 208.807C182.084 204.093 180.963 199.602 179.099 196.042C177.238 192.486 174.414 189.403 171.162 187.283C167.989 185.215 163.673 183.615 159.034 184.411L158.676 184.473L158.325 184.569L160.302 191.803C158.325 184.569 158.325 184.569 158.324 184.569L158.322 184.57L158.314 184.572L158.285 184.58L158.172 184.611L157.738 184.73C157.36 184.834 156.805 184.988 156.098 185.184C154.685 185.577 152.66 186.144 150.209 186.842C145.31 188.236 138.692 190.154 131.833 192.249C124.99 194.338 117.833 196.626 111.885 198.756C108.917 199.819 106.167 200.872 103.872 201.867C101.752 202.785 99.4409 203.894 97.759 205.157C92.0987 209.405 89.2743 216.15 87.8037 221.549C86.2732 227.168 85.8147 232.803 85.8622 236.453C85.8922 238.759 86.4571 242.076 87.0573 245.175C87.6996 248.49 88.5399 252.309 89.3591 255.955C89.6056 257.052 89.8493 258.13 90.0861 259.177L90.0868 259.179C90.6479 261.661 91.17 263.969 91.5969 265.952C91.8995 267.357 92.1374 268.521 92.2984 269.408C92.4006 269.972 92.4458 270.289 92.4651 270.424C92.4728 270.478 92.4763 270.503 92.4777 270.503C92.4779 270.503 92.478 270.502 92.4781 270.502C92.4782 270.501 92.4782 270.5 92.4783 270.5C92.503 272.097 92.4911 274.37 92.3688 276.592C92.292 277.988 92.1809 279.156 92.0574 280.047C91.384 280.647 90.4668 281.43 89.3022 282.397C86.3949 284.812 82.2419 288.125 77.2197 292.059C67.1912 299.914 53.8859 310.094 40.5817 320.193C27.284 330.286 14.0138 340.277 4.06627 347.746C-0.907022 351.481 -5.04874 354.584 -7.94678 356.753C-9.39578 357.837 -10.5338 358.689 -11.3094 359.268L-12.1944 359.93L-12.4209 360.099L-12.478 360.142L-12.4923 360.152L-12.4958 360.155C-12.4966 360.156 -12.4969 360.156 -8.00947 366.165C-3.522 372.175 -3.52154 372.174 -3.52069 372.174L-3.51697 372.171L-3.50231 372.16L-3.4444 372.117L-3.21633 371.946L-2.32806 371.282C-1.55027 370.701 -0.409821 369.848 1.04175 368.761C3.94485 366.588 8.09265 363.481 13.0728 359.741C23.0322 352.263 36.3248 342.255 49.6506 332.141C62.9697 322.031 76.3484 311.795 86.4692 303.868C91.5217 299.91 95.8097 296.491 98.8853 293.937C100.412 292.669 101.715 291.552 102.685 290.66C103.159 290.224 103.654 289.75 104.084 289.285C104.294 289.057 104.584 288.73 104.874 288.338L104.886 288.322C105.063 288.084 105.773 287.128 106.172 285.754C106.913 283.199 107.206 279.97 107.346 277.417C107.496 274.687 107.505 271.985 107.474 270.14C107.455 269.009 107.229 267.674 107.057 266.731C106.853 265.603 106.575 264.252 106.261 262.794C105.817 260.731 105.267 258.301 104.697 255.783L104.697 255.78C104.464 254.751 104.228 253.706 103.994 252.666C103.177 249.03 102.38 245.399 101.784 242.322C101.145 239.027 100.871 237.008 100.861 236.258C100.829 233.793 101.165 229.572 102.276 225.491C103.448 221.19 105.113 218.392 106.763 217.154C106.763 217.154 106.763 217.154 106.765 217.153L106.765 217.153C106.789 217.136 107.022 216.978 107.584 216.685C108.15 216.39 108.898 216.037 109.836 215.63C111.714 214.816 114.128 213.886 116.943 212.878C122.563 210.865 129.46 208.657 136.214 206.595C142.951 204.537 149.472 202.647 154.314 201.269C156.733 200.581 158.729 200.022 160.118 199.636ZM136.414 232.109C136.602 232.645 136.819 233.265 137.069 233.98L136.414 232.109ZM190.81 228.299C190.398 227.906 190.167 227.888 189.922 227.91C188.044 228.078 184.122 228.958 178.716 230.454C173.519 231.893 167.509 233.739 161.768 235.576C156.037 237.409 150.629 239.215 146.649 240.564C144.661 241.238 143.032 241.797 141.903 242.187L141.369 242.371C139.306 244.151 138.833 245.448 138.716 246.004C138.59 246.605 138.666 247.354 139.284 248.357C139.947 249.432 141.066 250.477 142.316 251.178C143.217 251.684 143.775 251.794 143.94 251.827L143.94 251.827C143.969 251.832 143.986 251.836 143.99 251.838C145.303 251.598 148.598 250.687 153.415 249.195C158.204 247.712 163.948 245.832 169.503 243.975C175.051 242.121 180.377 240.301 184.317 238.944C186.287 238.266 187.909 237.704 189.037 237.312C189.528 237.142 189.926 237.003 190.218 236.901C191.934 235.848 192.793 233.796 192.225 231.131C191.932 229.759 191.325 228.789 190.81 228.299ZM153.488 349.668C153.354 342.169 153.354 342.169 153.353 342.169L153.352 342.169L153.348 342.169L153.334 342.169L153.282 342.17L153.088 342.174L152.777 342.181C152.656 342.183 152.518 342.186 152.364 342.19C151.742 342.204 150.854 342.226 149.78 342.257C147.638 342.32 144.741 342.421 141.746 342.572C138.774 342.722 135.607 342.928 132.962 343.208C131.65 343.347 130.346 343.517 129.205 343.732C128.434 343.878 126.555 344.233 124.94 345.192L124.771 345.292L124.607 345.401L14.5189 418.872L22.8456 431.349L132.066 358.457C132.638 358.353 133.466 358.239 134.543 358.125C136.782 357.887 139.629 357.698 142.504 357.553C145.357 357.409 148.141 357.312 150.219 357.251C151.255 357.221 152.111 357.2 152.706 357.186C153.003 357.179 153.235 357.174 153.391 357.171L153.527 357.168C153.552 357.169 153.577 357.168 153.603 357.168L153.657 357.168L153.697 357.167C153.888 357.165 154.114 357.157 154.376 357.141C154.9 357.11 155.565 357.045 156.373 356.92C157.99 356.671 160.172 356.186 162.938 355.261C168.465 353.411 176.325 349.8 186.698 342.782L178.293 330.358C168.841 336.752 162.197 339.691 158.177 341.036C156.169 341.708 154.816 341.983 154.092 342.095C153.787 342.142 153.592 342.16 153.505 342.166L153.354 342.169L153.488 349.668ZM131.513 358.578C131.512 358.578 131.536 358.57 131.591 358.556C131.542 358.572 131.514 358.578 131.513 358.578ZM201.5 260.232C202.377 260.165 204.001 260.757 204.642 263.448C204.923 264.63 204.818 265.733 204.468 266.562C204.191 267.22 203.67 267.942 202.546 268.542C202.23 268.642 201.779 268.784 201.21 268.962C200.012 269.338 198.29 269.876 196.199 270.526C192.017 271.826 186.363 273.569 180.473 275.345C174.575 277.123 168.473 278.924 163.381 280.345C158.067 281.827 154.42 282.73 153.074 282.919C153.108 282.915 153.098 282.914 153.048 282.908C152.855 282.885 152.056 282.789 150.796 282.136C149.348 281.386 148.119 280.309 147.418 279.272C146.767 278.309 146.791 277.765 146.858 277.464C146.932 277.132 147.338 275.906 149.619 274.123L149.923 274.028L150.304 273.909C151.503 273.535 153.233 273 155.345 272.354C159.57 271.061 165.315 269.331 171.402 267.576C177.5 265.818 183.891 264.05 189.424 262.674C195.149 261.25 199.397 260.392 201.5 260.232ZM207.849 290.686C207.846 290.687 207.844 290.687 207.841 290.687C206.105 290.849 202.41 291.702 197.255 293.173C192.312 294.583 186.592 296.392 181.125 298.192C175.669 299.989 170.519 301.759 166.729 303.081C164.835 303.742 163.284 304.289 162.209 304.671L161.773 304.826C159.885 306.51 159.45 307.73 159.342 308.258C159.222 308.842 159.297 309.557 159.865 310.499C160.475 311.512 161.503 312.488 162.634 313.135C163.395 313.57 163.855 313.671 163.985 313.7L163.99 313.701C165.262 313.445 168.327 312.57 172.812 311.14C177.37 309.686 182.839 307.844 188.131 306.024C193.415 304.206 198.487 302.423 202.241 301.093C204.117 300.428 205.662 299.877 206.737 299.493C207.179 299.335 207.542 299.205 207.816 299.107C209.304 298.146 210.15 296.223 209.608 293.616C209.331 292.284 208.761 291.376 208.32 290.947C208.019 290.655 207.916 290.674 207.859 290.685C207.855 290.685 207.852 290.686 207.849 290.686Z" fill="#6E46FF"/>
<circle cx="94.5" cy="75.5" r="13.5" fill="#CEC2FC"/>
</g>
<defs>
<clipPath id="clip0_231_4689">
<rect width="400" height="400" rx="64" fill="white"/>
</clipPath>
</defs>
</svg>
