<svg width="48" height="48" viewBox="0 0 48 48" fill="none" xmlns="http://www.w3.org/2000/svg">
<g filter="url(#filter0_d_160_950)">
<path d="M18.4317 3.02954C20.4765 2.02866 21.4988 1.52822 22.5679 1.33102C23.515 1.15632 24.4853 1.15632 25.4325 1.33102C26.5016 1.52822 27.5239 2.02866 29.5687 3.02954L37.2456 6.78728C39.2904 7.78816 40.3128 8.2886 41.131 9.01523C41.8559 9.65895 42.4609 10.43 42.917 11.2916C43.4319 12.2641 43.6844 13.3886 44.1894 15.6376L46.0855 24.0811C46.5905 26.3301 46.843 27.4546 46.7943 28.5579C46.7511 29.5353 46.5352 30.4968 46.1568 31.3964C45.7298 32.412 45.0223 33.3137 43.6073 35.1172L38.2947 41.8885C36.8796 43.692 36.1721 44.5937 35.2931 45.2429C34.5144 45.818 33.6401 46.2459 32.7122 46.5062C31.6648 46.8 30.5301 46.8 28.2606 46.8H19.7398C17.4703 46.8 16.3355 46.8 15.2881 46.5062C14.3603 46.2459 13.486 45.818 12.7073 45.2429C11.8283 44.5937 11.1207 43.692 9.70572 41.8885L4.39313 35.1172C2.97811 33.3137 2.2706 32.412 1.84355 31.3964C1.46524 30.4968 1.24932 29.5353 1.20614 28.5579C1.15739 27.4546 1.4099 26.3301 1.91491 24.0811L3.81096 15.6376C4.31597 13.3886 4.56848 12.2641 5.08336 11.2916C5.5395 10.43 6.14448 9.65895 6.86936 9.01523C7.68762 8.2886 8.71 7.78816 10.7548 6.78728L18.4317 3.02954Z" fill="url(#paint0_linear_160_950)"/>
<path d="M18.8713 3.92771C20.967 2.90189 21.8469 2.48089 22.7493 2.31443C23.5765 2.16185 24.4239 2.16185 25.2511 2.31443C26.1535 2.48089 27.0333 2.90189 29.1291 3.92771L36.806 7.68545C38.9008 8.71083 39.7745 9.14801 40.467 9.76296C41.102 10.3268 41.6327 11.003 42.0332 11.7595C42.4708 12.586 42.6966 13.5538 43.2137 15.8567L45.1098 24.3002C45.6268 26.6026 45.8367 27.5748 45.7952 28.5137C45.7572 29.3732 45.5674 30.2184 45.235 31.0088C44.8723 31.8715 44.2694 32.6532 42.8205 34.5L37.5079 41.2712C36.0582 43.1189 35.4434 43.8888 34.699 44.4385C34.0173 44.9419 33.2528 45.3159 32.4422 45.5433C31.5583 45.7913 30.5866 45.8 28.2606 45.8H19.7398C17.4138 45.8 16.4421 45.7913 15.5582 45.5433C14.7476 45.3159 13.983 44.9419 13.3014 44.4385C12.557 43.8888 11.9422 43.1189 10.4925 41.2712L5.17988 34.5C3.73095 32.6532 3.12813 31.8715 2.76537 31.0088C2.43301 30.2184 2.24314 29.3732 2.20516 28.5137C2.16368 27.5748 2.37361 26.6026 2.89061 24.3002L4.78666 15.8567C5.30378 13.5538 5.52957 12.586 5.96715 11.7595C6.36766 11.003 6.89839 10.3268 7.53337 9.76296C8.22586 9.14801 9.0996 8.71083 11.1944 7.68545L18.8713 3.92771Z" stroke="white" stroke-opacity="0.4" stroke-width="2"/>
</g>
<path d="M23.274 17.7223C23.578 17.1324 24.4216 17.1324 24.7256 17.7223L26.6575 21.4705C26.7353 21.6214 26.8583 21.7444 27.0092 21.8222L30.7573 23.754C31.3473 24.0581 31.3473 24.9016 30.7573 25.2057L27.0092 27.1376C26.8583 27.2154 26.7353 27.3383 26.6575 27.4893L24.7256 31.2374C24.4216 31.8274 23.578 31.8274 23.274 31.2374L21.3421 27.4893C21.2643 27.3383 21.1413 27.2154 20.9904 27.1376L17.2423 25.2057C16.6523 24.9016 16.6523 24.0581 17.2423 23.754L20.9904 21.8222C21.1413 21.7444 21.2643 21.6214 21.3421 21.4705L23.274 17.7223Z" fill="url(#paint1_angular_160_950)"/>
<path d="M23.274 17.7223C23.578 17.1324 24.4216 17.1324 24.7256 17.7223L26.6575 21.4705C26.7353 21.6214 26.8583 21.7444 27.0092 21.8222L30.7573 23.754C31.3473 24.0581 31.3473 24.9016 30.7573 25.2057L27.0092 27.1376C26.8583 27.2154 26.7353 27.3383 26.6575 27.4893L24.7256 31.2374C24.4216 31.8274 23.578 31.8274 23.274 31.2374L21.3421 27.4893C21.2643 27.3383 21.1413 27.2154 20.9904 27.1376L17.2423 25.2057C16.6523 24.9016 16.6523 24.0581 17.2423 23.754L20.9904 21.8222C21.1413 21.7444 21.2643 21.6214 21.3421 21.4705L23.274 17.7223Z" fill="url(#paint2_angular_160_950)" fill-opacity="0.5"/>
<path d="M20.8977 21.2414L21.2318 21.4136L20.8977 21.2414C20.8675 21.2999 20.8198 21.3476 20.7613 21.3777L17.0132 23.3096C16.062 23.7999 16.062 25.1599 17.0132 25.6501L20.7613 27.582C20.8198 27.6122 20.8675 27.6598 20.8977 27.7184L22.8295 31.4665C23.3198 32.4177 24.6798 32.4177 25.1701 31.4665L27.1019 27.7184C27.1321 27.6598 27.1798 27.6122 27.2383 27.582L30.9864 25.6502C31.9376 25.1599 31.9376 23.7999 30.9864 23.3096L27.2383 21.3777C27.1798 21.3476 27.1321 21.2999 27.1019 21.2414L25.1701 17.4933C24.6798 16.5421 23.3198 16.5421 22.8295 17.4933L20.8977 21.2414Z" stroke="black" stroke-opacity="0.16"/>
<path fill-rule="evenodd" clip-rule="evenodd" d="M3.65039 34.1672L33.0728 4.74474L37.2457 6.78728C39.2904 7.78816 40.3128 8.2886 41.1311 9.01523C41.8559 9.65895 42.4609 10.43 42.9171 11.2916C43.3178 12.0485 43.5596 12.8975 43.8852 14.297L12.842 45.3402C12.7968 45.3083 12.7519 45.2758 12.7073 45.2429C11.8283 44.5937 11.1208 43.692 9.70576 41.8885L4.39316 35.1172C4.12028 34.7694 3.87371 34.4552 3.65039 34.1672Z" fill="white" fill-opacity="0.32"/>
<defs>
<filter id="filter0_d_160_950" x="1.2002" y="1.2" width="45.6001" height="46.6" filterUnits="userSpaceOnUse" color-interpolation-filters="sRGB">
<feFlood flood-opacity="0" result="BackgroundImageFix"/>
<feColorMatrix in="SourceAlpha" type="matrix" values="0 0 0 0 0 0 0 0 0 0 0 0 0 0 0 0 0 0 127 0" result="hardAlpha"/>
<feOffset dy="1"/>
<feComposite in2="hardAlpha" operator="out"/>
<feColorMatrix type="matrix" values="0 0 0 0 0.32 0 0 0 0 0 0 0 0 0 0.309533 0 0 0 1 0"/>
<feBlend mode="normal" in2="BackgroundImageFix" result="effect1_dropShadow_160_950"/>
<feBlend mode="normal" in="SourceGraphic" in2="effect1_dropShadow_160_950" result="shape"/>
</filter>
<linearGradient id="paint0_linear_160_950" x1="24.001" y1="0.303777" x2="24.001" y2="50.6198" gradientUnits="userSpaceOnUse">
<stop stop-color="#FFC9FD"/>
<stop offset="1" stop-color="#FA28F3"/>
</linearGradient>
<radialGradient id="paint1_angular_160_950" cx="0" cy="0" r="1" gradientUnits="userSpaceOnUse" gradientTransform="translate(23.9998 24.4799) rotate(90) scale(7.2)">
<stop stop-color="white"/>
<stop offset="1" stop-color="#E0E0E0"/>
</radialGradient>
<radialGradient id="paint2_angular_160_950" cx="0" cy="0" r="1" gradientUnits="userSpaceOnUse" gradientTransform="translate(23.9998 24.4799) rotate(-180) scale(7.2)">
<stop stop-color="white"/>
<stop offset="1" stop-color="#E0E0E0"/>
</radialGradient>
</defs>
</svg>
