<svg width="29" height="28" viewBox="0 0 29 28" fill="none" xmlns="http://www.w3.org/2000/svg">
<g id="more">
<g id="vuesax/outline/more">
<g id="more_2">
<g id="Group 1">
<path id="Vector" d="M7.20835 15.7501C6.07987 15.7501 5.16669 14.8369 5.16669 13.7084C5.16669 12.5799 6.07987 11.6667 7.20835 11.6667C8.33684 11.6667 9.25002 12.5799 9.25002 13.7084C9.25002 14.8369 8.33684 15.7501 7.20835 15.7501Z" fill="#97979B"/>
<path id="Vector_2" d="M22.375 15.7501C21.2466 15.7501 20.3334 14.8369 20.3334 13.7084C20.3334 12.5799 21.2466 11.6667 22.375 11.6667C23.5035 11.6667 24.4167 12.5799 24.4167 13.7084C24.4167 14.8369 23.5035 15.7501 22.375 15.7501Z" fill="#97979B"/>
<path id="Vector_3" d="M14.7917 15.7501C13.6632 15.7501 12.75 14.8369 12.75 13.7084C12.75 12.5799 13.6632 11.6667 14.7917 11.6667C15.9202 11.6667 16.8333 12.5799 16.8333 13.7084C16.8333 14.8369 15.9202 15.7501 14.7917 15.7501Z" fill="#97979B"/>
</g>
</g>
</g>
</g>
</svg>
