<svg width="28" height="28" viewBox="0 0 28 28" fill="none" xmlns="http://www.w3.org/2000/svg">
<g id="add">
<g id="vuesax/outline/add-square">
<g id="add-square">
<path id="Vector" d="M18.6666 14.875H9.33331C8.85498 14.875 8.45831 14.4783 8.45831 14C8.45831 13.5217 8.85498 13.125 9.33331 13.125H18.6666C19.145 13.125 19.5416 13.5217 19.5416 14C19.5416 14.4783 19.145 14.875 18.6666 14.875Z" fill="#97979B"/>
<path id="Vector_2" d="M14 19.5416C13.5217 19.5416 13.125 19.1449 13.125 18.6666V9.33325C13.125 8.85492 13.5217 8.45825 14 8.45825C14.4783 8.45825 14.875 8.85492 14.875 9.33325V18.6666C14.875 19.1449 14.4783 19.5416 14 19.5416Z" fill="#97979B"/>
<path id="Vector_3" d="M17.5 26.5416H10.5C4.16498 26.5416 1.45831 23.8349 1.45831 17.4999V10.4999C1.45831 4.16492 4.16498 1.45825 10.5 1.45825H17.5C23.835 1.45825 26.5416 4.16492 26.5416 10.4999V17.4999C26.5416 23.8349 23.835 26.5416 17.5 26.5416ZM10.5 3.20825C5.12165 3.20825 3.20831 5.12158 3.20831 10.4999V17.4999C3.20831 22.8783 5.12165 24.7916 10.5 24.7916H17.5C22.8783 24.7916 24.7916 22.8783 24.7916 17.4999V10.4999C24.7916 5.12158 22.8783 3.20825 17.5 3.20825H10.5Z" fill="#97979B"/>
</g>
</g>
</g>
</svg>
