<svg width="28" height="28" viewBox="0 0 28 28" fill="none" xmlns="http://www.w3.org/2000/svg">
<path d="M10.395 24.115C10.1734 24.115 9.9517 24.0333 9.7767 23.8583C9.43837 23.52 9.43837 22.96 9.7767 22.6217L17.3834 15.015C17.9434 14.455 17.9434 13.545 17.3834 12.985L9.7767 5.37833C9.43837 5.03999 9.43837 4.47999 9.7767 4.14166C10.115 3.80333 10.675 3.80333 11.0134 4.14166L18.62 11.7483C19.215 12.3433 19.5534 13.1483 19.5534 14C19.5534 14.8517 19.2267 15.6567 18.62 16.2517L11.0134 23.8583C10.8384 24.0217 10.6167 24.115 10.395 24.115Z" fill="white"/>
</svg>
