<svg width="28" height="28" viewBox="0 0 28 28" fill="none" xmlns="http://www.w3.org/2000/svg">
<path d="M14 18.375C11.585 18.375 9.625 16.415 9.625 14C9.625 11.585 11.585 9.625 14 9.625C16.415 9.625 18.375 11.585 18.375 14C18.375 16.415 16.415 18.375 14 18.375ZM14 11.375C12.5533 11.375 11.375 12.5533 11.375 14C11.375 15.4467 12.5533 16.625 14 16.625C15.4467 16.625 16.625 15.4467 16.625 14C16.625 12.5533 15.4467 11.375 14 11.375Z" fill="#97979B"/>
<path d="M17.745 25.8883C17.5 25.8883 17.255 25.8533 17.01 25.795C16.2867 25.5967 15.68 25.1417 15.295 24.5L15.155 24.2667C14.4667 23.0767 13.5217 23.0767 12.8334 24.2667L12.705 24.4883C12.32 25.1417 11.7134 25.6083 10.99 25.795C10.255 25.9933 9.49671 25.8883 8.85504 25.5033L6.84837 24.3483C6.13671 23.94 5.62337 23.275 5.40171 22.47C5.19171 21.665 5.29671 20.8367 5.70504 20.125C6.04337 19.53 6.13671 18.9933 5.93837 18.655C5.74004 18.3167 5.23837 18.1183 4.55004 18.1183C2.84671 18.1183 1.45837 16.73 1.45837 15.0267V12.9733C1.45837 11.27 2.84671 9.88168 4.55004 9.88168C5.23837 9.88168 5.74004 9.68334 5.93837 9.34501C6.13671 9.00668 6.05504 8.47001 5.70504 7.87501C5.29671 7.16334 5.19171 6.32334 5.40171 5.53001C5.61171 4.72501 6.12504 4.06001 6.84837 3.65168L8.86671 2.49668C10.185 1.71501 11.9234 2.17001 12.7167 3.51168L12.8567 3.74501C13.545 4.93501 14.49 4.93501 15.1784 3.74501L15.3067 3.52334C16.1 2.17001 17.8384 1.71501 19.1684 2.50834L21.175 3.66334C21.8867 4.07168 22.4 4.73668 22.6217 5.54168C22.8317 6.34668 22.7267 7.17501 22.3184 7.88668C21.98 8.48168 21.8867 9.01834 22.085 9.35668C22.2834 9.69501 22.785 9.89334 23.4734 9.89334C25.1767 9.89334 26.565 11.2817 26.565 12.985V15.0383C26.565 16.7417 25.1767 18.13 23.4734 18.13C22.785 18.13 22.2834 18.3283 22.085 18.6667C21.8867 19.005 21.9684 19.5417 22.3184 20.1367C22.7267 20.8483 22.8434 21.6883 22.6217 22.4817C22.4117 23.2867 21.8984 23.9517 21.175 24.36L19.1567 25.515C18.7134 25.76 18.235 25.8883 17.745 25.8883ZM14 21.5717C15.0384 21.5717 16.0067 22.225 16.6717 23.38L16.8 23.6017C16.94 23.8467 17.1734 24.0217 17.4534 24.0917C17.7334 24.1617 18.0134 24.1267 18.2467 23.9867L20.265 22.82C20.5684 22.645 20.8017 22.3533 20.895 22.0033C20.9884 21.6533 20.9417 21.2917 20.7667 20.9883C20.1017 19.845 20.02 18.6667 20.5334 17.7683C21.0467 16.87 22.1084 16.3567 23.4384 16.3567C24.185 16.3567 24.78 15.7617 24.78 15.015V12.9617C24.78 12.2267 24.185 11.62 23.4384 11.62C22.1084 11.62 21.0467 11.1067 20.5334 10.2083C20.02 9.31001 20.1017 8.13168 20.7667 6.98834C20.9417 6.68501 20.9884 6.32334 20.895 5.97334C20.8017 5.62334 20.58 5.34334 20.2767 5.15668L18.2584 4.00168C17.7567 3.69834 17.0917 3.87334 16.7884 4.38668L16.66 4.60834C15.995 5.76334 15.0267 6.41668 13.9884 6.41668C12.95 6.41668 11.9817 5.76334 11.3167 4.60834L11.1884 4.37501C10.8967 3.88501 10.2434 3.71001 9.74171 4.00168L7.72337 5.16834C7.42004 5.34334 7.18671 5.63501 7.09337 5.98501C7.00004 6.33501 7.04671 6.69668 7.22171 7.00001C7.88671 8.14334 7.96837 9.32168 7.45504 10.22C6.94171 11.1183 5.88004 11.6317 4.55004 11.6317C3.80337 11.6317 3.20837 12.2267 3.20837 12.9733V15.0267C3.20837 15.7617 3.80337 16.3683 4.55004 16.3683C5.88004 16.3683 6.94171 16.8817 7.45504 17.78C7.96837 18.6783 7.88671 19.8567 7.22171 21C7.04671 21.3033 7.00004 21.665 7.09337 22.015C7.18671 22.365 7.40837 22.645 7.71171 22.8317L9.73004 23.9867C9.97504 24.1383 10.2667 24.1733 10.535 24.1033C10.815 24.0333 11.0484 23.8467 11.2 23.6017L11.3284 23.38C11.9934 22.2367 12.9617 21.5717 14 21.5717Z" fill="#97979B"/>
</svg>
