<svg width="28" height="28" viewBox="0 0 28 28" fill="none" xmlns="http://www.w3.org/2000/svg">
<g id="home">
<g id="vuesax/outline/home-2">
<g id="home-2">
<path id="Vector" d="M20.755 26.5416H7.24498C4.04831 26.5416 1.45831 23.9399 1.45831 20.7432V12.0982C1.45831 10.5116 2.43831 8.51656 3.69831 7.53656L9.98665 2.63656C11.8766 1.16656 14.8983 1.09655 16.8583 2.47322L24.0683 7.52489C25.4566 8.49322 26.5416 10.5699 26.5416 12.2616V20.7549C26.5416 23.9399 23.9516 26.5416 20.755 26.5416ZM11.06 4.01322L4.77165 8.91322C3.94331 9.56656 3.20831 11.0482 3.20831 12.0982V20.7432C3.20831 22.9716 5.01665 24.7916 7.24498 24.7916H20.755C22.9833 24.7916 24.7916 22.9832 24.7916 20.7549V12.2616C24.7916 11.1416 23.9866 9.58989 23.065 8.95989L15.855 3.90822C14.525 2.97489 12.3316 3.02156 11.06 4.01322Z" fill="#97979B"/>
<path id="Vector_2" d="M14 21.875C13.5217 21.875 13.125 21.4783 13.125 21V17.5C13.125 17.0217 13.5217 16.625 14 16.625C14.4783 16.625 14.875 17.0217 14.875 17.5V21C14.875 21.4783 14.4783 21.875 14 21.875Z" fill="#97979B"/>
</g>
</g>
</g>
</svg>
