<svg width="28" height="28" viewBox="0 0 28 28" fill="none" xmlns="http://www.w3.org/2000/svg">
<path d="M13.9998 14.875C10.3015 14.875 7.2915 11.865 7.2915 8.16668C7.2915 4.46834 10.3015 1.45834 13.9998 1.45834C17.6982 1.45834 20.7082 4.46834 20.7082 8.16668C20.7082 11.865 17.6982 14.875 13.9998 14.875ZM13.9998 3.20834C11.2698 3.20834 9.0415 5.43668 9.0415 8.16668C9.0415 10.8967 11.2698 13.125 13.9998 13.125C16.7298 13.125 18.9582 10.8967 18.9582 8.16668C18.9582 5.43668 16.7298 3.20834 13.9998 3.20834Z" fill="white"/>
<path d="M24.0218 26.5417C23.5435 26.5417 23.1468 26.145 23.1468 25.6667C23.1468 21.6417 19.0402 18.375 14.0002 18.375C8.96018 18.375 4.85352 21.6417 4.85352 25.6667C4.85352 26.145 4.45685 26.5417 3.97852 26.5417C3.50018 26.5417 3.10352 26.145 3.10352 25.6667C3.10352 20.685 7.99185 16.625 14.0002 16.625C20.0085 16.625 24.8968 20.685 24.8968 25.6667C24.8968 26.145 24.5002 26.5417 24.0218 26.5417Z" fill="white"/>
</svg>
