<svg width="28" height="28" viewBox="0 0 28 28" fill="none" xmlns="http://www.w3.org/2000/svg">
<path d="M20.9997 9.22834C20.9647 9.22834 20.9414 9.22834 20.9064 9.22834H20.848C18.643 9.15834 16.998 7.455 16.998 5.355C16.998 3.20834 18.748 1.47 20.883 1.47C23.018 1.47 24.7681 3.22 24.7681 5.355C24.7564 7.46667 23.1114 9.17001 21.0114 9.24001C21.0114 9.22834 21.0114 9.22834 20.9997 9.22834ZM20.883 3.20834C19.7047 3.20834 18.748 4.16501 18.748 5.34334C18.748 6.49834 19.6464 7.43168 20.8014 7.47834C20.813 7.46668 20.9064 7.46668 21.0114 7.47834C22.143 7.42001 23.018 6.48668 23.0297 5.34334C23.0297 4.16501 22.073 3.20834 20.883 3.20834Z" fill="white"/>
<path d="M21.0117 17.8267C20.5567 17.8267 20.1018 17.7917 19.6468 17.71C19.1684 17.6284 18.8534 17.1734 18.9351 16.695C19.0167 16.2167 19.4717 15.9017 19.9501 15.9834C21.3851 16.2284 22.9017 15.9601 23.9167 15.2834C24.4651 14.9217 24.7568 14.4667 24.7568 14.0117C24.7568 13.5567 24.4534 13.1134 23.9167 12.7517C22.9017 12.075 21.3617 11.8067 19.9151 12.0634C19.4367 12.1567 18.9818 11.83 18.9001 11.3517C18.8184 10.8734 19.1334 10.4184 19.6118 10.3367C21.5134 9.99838 23.4851 10.36 24.8851 11.2934C25.9118 11.9817 26.5068 12.9617 26.5068 14.0117C26.5068 15.05 25.9234 16.0417 24.8851 16.7417C23.8234 17.4417 22.4467 17.8267 21.0117 17.8267Z" fill="white"/>
<path d="M6.96506 9.22835C6.95339 9.22835 6.94173 9.22835 6.94173 9.22835C4.84173 9.15835 3.19673 7.45501 3.18506 5.35501C3.18506 3.20834 4.93506 1.45834 7.07006 1.45834C9.20506 1.45834 10.9551 3.20835 10.9551 5.34335C10.9551 7.45501 9.31006 9.15835 7.21006 9.22835L6.96506 8.35335L7.04673 9.22835C7.02339 9.22835 6.98839 9.22835 6.96506 9.22835ZM7.08173 7.47835C7.15173 7.47835 7.21006 7.47834 7.28006 7.49001C8.31839 7.44334 9.22839 6.51001 9.22839 5.35501C9.22839 4.17667 8.27173 3.22 7.09339 3.22C5.91506 3.22 4.95839 4.17667 4.95839 5.35501C4.95839 6.49834 5.84506 7.42001 6.97673 7.49001C6.98839 7.47834 7.03506 7.47835 7.08173 7.47835Z" fill="white"/>
<path d="M6.9535 17.8267C5.5185 17.8267 4.14183 17.4417 3.08016 16.7417C2.0535 16.0534 1.4585 15.0617 1.4585 14.0117C1.4585 12.9734 2.0535 11.9817 3.08016 11.2934C4.48016 10.36 6.45183 9.99838 8.3535 10.3367C8.83183 10.4184 9.14683 10.8734 9.06516 11.3517C8.9835 11.83 8.5285 12.1567 8.05016 12.0634C6.6035 11.8067 5.07516 12.075 4.0485 12.7517C3.50016 13.1134 3.2085 13.5567 3.2085 14.0117C3.2085 14.4667 3.51183 14.9217 4.0485 15.2834C5.0635 15.9601 6.58016 16.2284 8.01516 15.9834C8.49349 15.9017 8.9485 16.2284 9.03016 16.695C9.11183 17.1734 8.79683 17.6284 8.3185 17.71C7.8635 17.7917 7.40849 17.8267 6.9535 17.8267Z" fill="white"/>
<path d="M13.9997 17.9433C13.9647 17.9433 13.9414 17.9433 13.9064 17.9433H13.848C11.643 17.8733 9.99805 16.17 9.99805 14.07C9.99805 11.9233 11.748 10.185 13.883 10.185C16.018 10.185 17.768 11.935 17.768 14.07C17.7564 16.1816 16.1114 17.885 14.0114 17.955C14.0114 17.9433 14.0114 17.9433 13.9997 17.9433ZM13.883 11.9233C12.7047 11.9233 11.748 12.88 11.748 14.0583C11.748 15.2133 12.6464 16.1466 13.8014 16.1933C13.813 16.1816 13.9064 16.1816 14.0114 16.1933C15.143 16.135 16.018 15.2016 16.0297 14.0583C16.0297 12.8916 15.073 11.9233 13.883 11.9233Z" fill="white"/>
<path d="M13.9998 26.5533C12.5998 26.5533 11.1998 26.1917 10.1148 25.4567C9.08816 24.7683 8.49316 23.7883 8.49316 22.7383C8.49316 21.7 9.0765 20.6966 10.1148 20.0083C12.2965 18.5616 15.7148 18.5616 17.8848 20.0083C18.9115 20.6966 19.5065 21.6766 19.5065 22.7266C19.5065 23.765 18.9232 24.7683 17.8848 25.4567C16.7998 26.18 15.3998 26.5533 13.9998 26.5533ZM11.0832 21.4783C10.5348 21.84 10.2432 22.295 10.2432 22.75C10.2432 23.205 10.5465 23.6483 11.0832 24.01C12.6582 25.0717 15.3298 25.0717 16.9048 24.01C17.4532 23.6483 17.7448 23.1933 17.7448 22.7383C17.7448 22.2833 17.4415 21.84 16.9048 21.4783C15.3415 20.4167 12.6698 20.4283 11.0832 21.4783Z" fill="white"/>
</svg>
